<?xml version="1.0" encoding="UTF-8"?>
<svg width="49px" height="47px" viewBox="0 0 49 47" version="1.1" xmlns="http://www.w3.org/2000/svg" xmlns:xlink="http://www.w3.org/1999/xlink">
    <title>会议@3x</title>
    <g id="页面-1" stroke="none" stroke-width="1" fill="none" fill-rule="evenodd">
        <g id="首页" transform="translate(-240.000000, -474.000000)" fill="#FFFFFF" fill-rule="nonzero">
            <g id="编组-5" transform="translate(205.000000, 452.000000)">
                <g id="会议" transform="translate(35.000000, 22.000000)">
                    <path d="M30.3225806,18.1935483 C30.3225806,19.8185305 31.1894983,21.320076 32.5967742,22.1325671 C34.00405,22.9450583 35.7378854,22.9450583 37.1451613,22.1325671 C38.5524372,21.320076 39.4193548,19.8185305 39.4193548,18.1935483 C39.4193548,15.6815435 37.3829726,13.6451613 34.8709677,13.6451613 C32.3589629,13.6451613 30.3225806,15.6815435 30.3225806,18.1935483 L30.3225806,18.1935483 Z" id="路径"></path>
                    <path d="M45.483871,0 L3.03225806,0 C1.35758818,0 0,1.35381885 0,3.02383903 L0,33.2622293 C0,34.9322495 1.35758818,36.2860683 3.03225806,36.2860683 L19.1032258,36.2860683 L10.1580645,44.238765 C9.6714893,44.5695414 9.42099858,45.1513649 9.51562677,45.7309775 C9.61025495,46.3105901 10.032882,46.7831291 10.5995455,46.9429061 C11.1662091,47.1026831 11.774389,46.9207916 12.1593548,46.4764058 L23.6819355,36.2860683 L25.9258065,36.2860683 L37.4483871,46.4764058 C37.7158312,46.7355605 38.0762004,46.87713 38.4490323,46.8695049 C39.0719453,46.8617267 39.6266902,46.4747631 39.8476263,45.8939126 C40.0685623,45.313062 39.910718,44.6565564 39.4496774,44.238765 L30.5045161,36.2860683 L45.483871,36.2860683 C47.1585409,36.2860683 48.516129,34.9322495 48.516129,33.2622293 L48.516129,3.02383903 C48.516129,1.35381885 47.1585409,0 45.483871,0 L45.483871,0 Z M7.06516129,12.7001239 C7.06516129,11.8651138 7.74395538,11.1882044 8.58129032,11.1882044 L20.7103226,11.1882044 C21.5476575,11.1882044 22.2264516,11.8651138 22.2264516,12.7001239 C22.2264516,13.535134 21.5476575,14.2120434 20.7103226,14.2120434 L8.58129032,14.2120434 C7.74395538,14.2120434 7.06516129,13.535134 7.06516129,12.7001239 Z M12.6141935,23.5859444 C12.6141935,22.7509343 13.2929876,22.0740249 14.1303226,22.0740249 L20.7103226,22.0740249 C21.5476575,22.0740249 22.2264516,22.7509343 22.2264516,23.5859444 C22.2264516,24.4209545 21.5476575,25.0978639 20.7103226,25.0978639 L14.1303226,25.0978639 C13.2929876,25.0978639 12.6141935,24.4209545 12.6141935,23.5859444 Z M34.9012903,25.7026926 C31.832476,25.714873 29.0590051,23.8808177 27.8761052,21.0569808 C26.6932053,18.2331439 27.3342671,14.976679 29.4999108,12.808375 C31.6655545,10.6400709 34.9284905,9.98774224 37.7649079,11.1560304 C40.6013254,12.3243186 42.4516129,15.0827159 42.4516129,18.1430342 C42.4516129,22.3063042 39.0761185,25.6859786 34.9012903,25.7026926 L34.9012903,25.7026926 Z" id="形状"></path>
                </g>
            </g>
        </g>
    </g>
</svg>