<?xml version="1.0" encoding="UTF-8"?>
<svg width="54px" height="46px" viewBox="0 0 54 46" version="1.1" xmlns="http://www.w3.org/2000/svg" xmlns:xlink="http://www.w3.org/1999/xlink">
    <title>分期－教育@3x</title>
    <g id="页面-1" stroke="none" stroke-width="1" fill="none" fill-rule="evenodd">
        <g id="首页" transform="translate(-235.000000, -581.000000)" fill="#FFFFFF" fill-rule="nonzero">
            <g id="编组-4" transform="translate(205.000000, 558.000000)">
                <g id="分期－教育" transform="translate(30.000000, 23.000000)">
                    <path d="M26.8923077,21.2307692 C26.22,21.2307692 25.2115385,21.2307692 24.5392308,20.8891898 L3.02538462,14.7407594 C1.00846154,14.0576005 0,12.3497032 0,10.6418059 C0,8.93390856 1.00846154,7.22601125 2.68923077,6.54285232 L24.5392308,0.39442199 C25.8838462,0.0528425268 27.9007692,-0.288736936 29.2453846,0.39442199 L50.7592308,6.54285232 C52.7761538,7.22601125 53.7846154,8.93390856 53.7846154,10.6418059 C53.7846154,12.3497032 52.7761538,14.0576005 51.0953846,14.7407594 L29.2453846,20.8891898 C28.5730769,21.2307692 27.5646154,21.2307692 26.8923077,21.2307692 Z" id="路径"></path>
                    <path d="M38.3202961,41.0461538 L16.480074,41.0461538 C12.5091246,41.0461538 9.2,37.6710059 9.2,33.6208284 L9.2,20.7952663 C9.2,20.1202367 9.53091246,19.7827219 9.86182491,19.4452071 C10.1927374,19.1076923 10.8545623,19.1076923 11.1854747,19.1076923 L27.0692726,23.8328994 C27.7310975,24.1704142 28.3929224,24.1704142 29.0547473,23.8328994 L43.2839829,19.1076923 C43.9458079,19.1076923 44.2767203,19.1076923 44.6076328,19.4452071 C44.9385452,19.7827219 45.2694577,20.1202367 45.2694577,20.7952663 L45.2694577,33.6208284 C45.6003701,37.6710059 42.2912456,41.0461538 38.3202961,41.0461538 Z" id="路径"></path>
                    <path d="M50.6,38.9230769 C49.5384615,38.9230769 48.8307692,38.2558242 48.8307692,37.2549451 L48.8307692,17.2373626 C48.8307692,16.2364835 49.5384615,15.5692308 50.6,15.5692308 C51.6615385,15.5692308 52.3692308,16.2364835 52.3692308,17.2373626 L52.3692308,37.2549451 C52.3692308,38.2558242 51.6615385,38.9230769 50.6,38.9230769 Z" id="路径"></path>
                    <path d="M48.8307692,43.5230769 C48.8307692,44.8910438 49.9397255,46 51.3076923,46 C52.6756591,46 53.7846154,44.8910438 53.7846154,43.5230769 C53.7846154,42.1551101 52.6756591,41.0461538 51.3076923,41.0461538 C49.9397255,41.0461538 48.8307692,42.1551101 48.8307692,43.5230769 Z" id="路径"></path>
                </g>
            </g>
        </g>
    </g>
</svg>